<svg xmlns="http://www.w3.org/2000/svg" width="217" height="40" viewBox="0 0 217 40">
  <g id="Group_1" data-name="Group 1" transform="translate(-511 -393)">
    <path id="Vector" d="M21.858,24.686a5.456,5.456,0,0,1,0,7.716l2.828,2.828a9.456,9.456,0,0,0,0-13.372Zm0,7.716a5.456,5.456,0,0,1-7.716,0L11.314,35.23a9.456,9.456,0,0,0,13.373,0Zm-7.716,0a5.456,5.456,0,0,1,0-7.716l-2.828-2.828a9.456,9.456,0,0,0,0,13.372Zm0-7.716a5.456,5.456,0,0,1,7.716,0l2.828-2.828a9.456,9.456,0,0,0-13.373,0ZM32.4,14.142a5.456,5.456,0,0,1,0,7.716l2.828,2.828a9.456,9.456,0,0,0,0-13.373Zm0,7.716a5.456,5.456,0,0,1-7.716,0l-2.828,2.828a9.456,9.456,0,0,0,13.372,0Zm-7.716,0a5.456,5.456,0,0,1,0-7.716l-2.829-2.828a9.456,9.456,0,0,0,0,13.373Zm0-7.716a5.456,5.456,0,0,1,7.716,0l2.828-2.828a9.456,9.456,0,0,0-13.373,0ZM21.858,3.6a5.456,5.456,0,0,1,0,7.716l2.829,2.828a9.456,9.456,0,0,0,0-13.373Zm0,7.716a5.456,5.456,0,0,1-7.716,0l-2.828,2.828a9.456,9.456,0,0,0,13.373,0Zm-7.716,0a5.456,5.456,0,0,1,0-7.716L11.314.77a9.456,9.456,0,0,0,0,13.373Zm0-7.716a5.456,5.456,0,0,1,7.716,0L24.686.77a9.456,9.456,0,0,0-13.373,0ZM11.314,14.142a5.456,5.456,0,0,1,0,7.716l2.828,2.828a9.456,9.456,0,0,0,0-13.373Zm0,7.716a5.456,5.456,0,0,1-7.716,0L.77,24.686a9.456,9.456,0,0,0,13.373,0Zm-7.716,0a5.456,5.456,0,0,1,0-7.716L.77,11.314a9.456,9.456,0,0,0,0,13.373Zm0-7.716a5.456,5.456,0,0,1,7.716,0l2.828-2.828a9.456,9.456,0,0,0-13.373,0Z" transform="translate(513 395)" fill="#fff"/>
    <g id="Circeya" transform="translate(557.734 397)">
      <path id="Path_1" data-name="Path 1" d="M21.2,3.35c.049.05.049.05.1.05C21.248,3.4,21.248,3.35,21.2,3.35ZM23.809,21.8a15.9,15.9,0,0,1-7.536,7.4,9.181,9.181,0,0,1-4.039.95,8.321,8.321,0,0,1-3.3-.7c-.3-.15-.64-.35-1.034-.55l-.2-.2C2.925,25.45,1.94,17.15,5.585,10.3a15.825,15.825,0,0,1,7.536-7.45A9.339,9.339,0,0,1,17.16,1.9a7.972,7.972,0,0,1,3.3.7l.788.45a.171.171,0,0,1,.1.05l.148.05.2.2c2.807,1.9,4.384,5.6,4.334,9.95l2.906.05a15.925,15.925,0,0,0-6.847-11l-.049-.05c-.049,0-.049-.05-.1-.05l-.1-.05A13.094,13.094,0,0,0,14.7.1C6.718.1.266,7.25.266,16.05a16.272,16.272,0,0,0,6.009,12.9,5.4,5.4,0,0,0,.788.6c.246.2.443.3.64.45a7.4,7.4,0,0,0,.887.45,13.14,13.14,0,0,0,6.108,1.5c6.8,0,12.708-5.25,14.136-12.55l-4.039.1A24.645,24.645,0,0,1,23.809,21.8Z" fill="#fff"/>
      <path id="Path_2" data-name="Path 2" d="M34.757,32V.05H31.7V32Z" fill="#fff"/>
      <path id="Path_3" data-name="Path 3" d="M51.234,15.9c5.566-.35,9.7-4.1,9.7-8.2,0-5.4-6.255-7.65-12.117-7.65h-10V31.9h3.251V16.05c7.191,0,15.269.2,15.269,15.7v.15h3.6v-.05C60.938,23.55,57.982,18,51.234,15.9ZM42.073,15V1.15h8.521C53.3,1.25,55.815,2.5,56.8,4.9c1.478,3.5-.542,7.65-4.482,9.4a9.231,9.231,0,0,1-3.2.7Z" fill="#fff"/>
      <path id="Path_4" data-name="Path 4" d="M83.826,3.35c.049.05.049.05.1.05C83.875,3.4,83.875,3.35,83.826,3.35Zm2.61,18.45A15.905,15.905,0,0,1,78.9,29.2a9.182,9.182,0,0,1-4.039.95,8.321,8.321,0,0,1-3.3-.7c-.3-.15-.64-.35-1.034-.55l-.2-.2c-4.778-3.25-5.763-11.55-2.118-18.4a15.826,15.826,0,0,1,7.536-7.45,9.339,9.339,0,0,1,4.039-.95,7.972,7.972,0,0,1,3.3.7l.788.45a.171.171,0,0,1,.1.05l.148.05.2.2c2.808,1.9,4.384,5.6,4.334,9.95l2.906.05a15.925,15.925,0,0,0-6.846-11l-.049-.05c-.049,0-.049-.05-.1-.05l-.1-.05A13.094,13.094,0,0,0,77.324.1C69.345.1,62.893,7.25,62.893,16.05A16.271,16.271,0,0,0,68.9,28.95a5.4,5.4,0,0,0,.788.6c.246.2.443.3.64.45a7.39,7.39,0,0,0,.887.45,13.14,13.14,0,0,0,6.108,1.5c6.8,0,12.708-5.25,14.136-12.55l-4.039.1A24.645,24.645,0,0,1,86.437,21.8Z" fill="#fff"/>
      <path id="Path_5" data-name="Path 5" d="M116.84,1.25V.1H94.33V31.95h22.51v-1.2H97.335V16.7h17.633V15.4H97.335V1.25Z" fill="#fff"/>
      <path id="Path_6" data-name="Path 6" d="M142,0,131.364,17.5v.05l-.049-.05L120.725,0h-3.94L129.1,18.6V31.95h3.054V18.6L144.466,0Z" fill="#fff"/>
      <path id="Path_7" data-name="Path 7" d="M157.262.05h-4.285l-12.954,31.9h2.709l4.285-11.55h14.629l4.285,11.55h4.335ZM147.51,19.1,154.356.75l6.8,18.35Z" fill="#fff"/>
    </g>
  </g>
</svg>
